<svg width="304" height="133" viewBox="0 0 304 133" fill="none" xmlns="http://www.w3.org/2000/svg">
<path d="M79.1297 3.86794C85.4997 -0.882059 93.1497 -1.32206 99.4997 2.90794C103.03 5.25794 105.96 8.81794 108.28 12.6379L142.81 69.4879C148.97 79.6279 160.43 74.6879 169.23 71.7179L133.88 124.368C130.47 129.448 125.55 132.588 119.92 132.598C114.29 132.608 108.25 130.008 104.88 124.648L70.9997 70.8279C65.8797 62.6979 57.0697 60.3979 48.3297 64.0979L35.6797 70.5579L68.8897 16.4279C71.7297 11.7979 74.6097 7.24794 79.1297 3.86794Z" fill="black"/>
<path d="M223.249 0.10769C230.709 -0.17231 237.009 4.48769 240.679 10.4677L276.149 68.2477C282.979 79.3677 292.349 75.1677 303.199 71.3977L267.219 124.818C264.159 129.368 259.239 132.228 254.599 132.528C240.559 133.428 235.529 119.538 227.959 107.518L205.839 72.3877C201.869 66.0777 195.349 61.3877 187.789 60.4177C182.929 59.7877 178.819 62.5677 173.689 64.1977L206.189 10.8877C209.779 5.00769 215.949 0.39769 223.249 0.12769V0.10769Z" fill="black"/>
<path d="M0 132.488L26.45 86.498L53.09 132.578L0 132.488Z" fill="black"/>
</svg>
