<svg width="1055" height="133" viewBox="0 0 1055 133" fill="none" xmlns="http://www.w3.org/2000/svg">
<g clip-path="url(#clip0_108_4043)">
<path d="M79.1297 3.86989C85.4997 -0.880106 93.1497 -1.32011 99.4997 2.90989C103.03 5.25989 105.96 8.81989 108.28 12.6399L142.81 69.4899C148.97 79.6299 160.43 74.6899 169.23 71.7199L133.88 124.37C130.47 129.45 125.55 132.59 119.92 132.6C114.29 132.61 108.25 130.01 104.88 124.65L70.9997 70.8299C65.8797 62.6999 57.0697 60.3999 48.3297 64.0999L35.6797 70.5599L68.8897 16.4299C71.7297 11.7999 74.6097 7.24989 79.1297 3.86989Z" fill="white"/>
<path d="M223.249 0.109643C230.709 -0.170357 237.009 4.48964 240.679 10.4696L276.149 68.2496C282.979 79.3696 292.349 75.1696 303.199 71.3996L267.219 124.82C264.159 129.37 259.239 132.23 254.599 132.53C240.559 133.43 235.529 119.54 227.959 107.52L205.839 72.3896C201.869 66.0796 195.349 61.3896 187.789 60.4196C182.929 59.7896 178.819 62.5696 173.689 64.1996L206.189 10.8896C209.779 5.00964 215.949 0.399643 223.249 0.129643V0.109643Z" fill="white"/>
<path d="M0 132.49L26.45 86.5L53.09 132.58L0 132.49Z" fill="white"/>
<path d="M397.289 33.5299L380.039 98.0499C379.749 99.1399 378.759 99.8899 377.639 99.8899H359.299C357.669 99.8899 356.479 98.3399 356.899 96.7599L374.149 32.2399C374.439 31.1499 375.429 30.3999 376.549 30.3999H394.889C396.519 30.3999 397.709 31.9499 397.289 33.5299ZM431.639 30.3999C433.989 30.3999 436.049 30.8499 437.829 31.7299C439.609 32.6199 441.069 33.8099 442.209 35.3099C443.349 36.7999 444.079 38.5699 444.399 40.5899C444.719 42.6199 444.559 44.8099 443.919 47.1499L430.319 98.0399C430.029 99.1299 429.039 99.8799 427.919 99.8799H409.579C407.949 99.8799 406.759 98.3299 407.179 96.7499L420.119 48.2099C420.479 46.7899 420.319 45.5999 419.639 44.6299C418.959 43.6699 417.909 43.1899 416.489 43.1899H402.789C400.649 43.1899 399.509 40.6599 400.929 39.0599L407.849 31.2199C408.319 30.6899 408.999 30.3799 409.709 30.3799H431.649L431.639 30.3999ZM481.919 30.3999C484.269 30.3999 486.349 30.8499 488.159 31.7299C489.969 32.6199 491.429 33.8099 492.539 35.3099C493.639 36.7999 494.369 38.5699 494.729 40.5899C495.089 42.6199 494.939 44.8099 494.299 47.1499L480.599 98.0499C480.309 99.1399 479.319 99.8899 478.199 99.8899H459.859C458.219 99.8899 457.039 98.3399 457.459 96.7599L470.499 48.2199C470.859 46.7999 470.679 45.6099 469.969 44.6399C469.259 43.6799 468.189 43.1999 466.769 43.1999H452.499C450.359 43.1999 449.219 40.6799 450.629 39.0799L457.489 31.2399C457.959 30.6999 458.639 30.3899 459.359 30.3899H481.929L481.919 30.3999Z" fill="white"/>
<path d="M571.59 43.4199C574.08 43.4199 576.27 43.8799 578.16 44.8099C580.04 45.7399 581.58 47.0199 582.75 48.6499C583.92 50.2899 584.69 52.1699 585.04 54.3099C585.4 56.4499 585.25 58.7599 584.61 61.2499L574.75 98.0499C574.46 99.1399 573.47 99.8899 572.35 99.8899H505.19C503.48 99.8899 501.95 99.5499 500.6 98.8799C499.25 98.1999 498.14 97.2999 497.29 96.1599C496.44 95.0199 495.88 93.6899 495.64 92.1599C495.39 90.6299 495.52 88.9799 496.01 87.1999L498.57 77.4899C499.07 75.7799 499.85 74.1599 500.92 72.6299C501.99 71.0999 503.25 69.7699 504.71 68.6299C506.17 67.4899 507.75 66.5899 509.46 65.9099C511.17 65.2299 512.88 64.8999 514.58 64.8999H550.16C552.3 64.8999 553.44 67.4299 552.02 69.0299L547.45 74.1999C546.98 74.7299 546.3 75.0399 545.59 75.0399H526.11C525.18 75.0399 524.31 75.3599 523.49 75.9999C522.67 76.6399 522.12 77.4599 521.84 78.4599L520.45 83.6899C520.16 84.6899 520.27 85.4999 520.77 86.1499C521.27 86.7899 521.98 87.1099 522.91 87.1099H552.28C553.4 87.1099 554.39 86.3499 554.68 85.2699L561.66 59.2499C561.87 58.3999 561.77 57.6899 561.34 57.1199C560.91 56.5499 560.27 56.2699 559.42 56.2699H510.13C508.5 56.2699 507.31 54.7199 507.73 53.1399L509.82 45.2999C510.11 44.2099 511.1 43.4499 512.22 43.4499H571.58L571.59 43.4199Z" fill="white"/>
<path d="M679.258 43.5298C680.888 43.5298 682.078 45.0798 681.658 46.6598L667.339 99.9998C666.489 103.06 665.118 105.94 663.228 108.65C661.338 111.35 659.138 113.72 656.608 115.75C654.078 117.78 651.309 119.38 648.279 120.55C645.249 121.72 642.209 122.31 639.149 122.31H585.589C583.959 122.31 582.768 120.76 583.188 119.18L585.279 111.34C585.569 110.25 586.558 109.49 587.678 109.49H633.808C635.868 109.49 637.828 108.76 639.678 107.3C641.528 105.84 642.738 104.08 643.308 102.02L654.748 59.4598C655.168 57.8798 653.978 56.3298 652.348 56.3298H626.019C624.599 56.3298 623.239 56.8098 621.959 57.7698C620.679 58.7298 619.858 59.9198 619.498 61.3498L613.948 82.0598C613.588 83.4798 613.768 84.6898 614.478 85.6898C615.188 86.6898 616.258 87.1798 617.678 87.1798H637.288C639.428 87.1798 640.568 89.6998 639.158 91.2998L632.298 99.1398C631.828 99.6798 631.148 99.9898 630.428 99.9898H602.418C600.138 99.9898 598.099 99.5498 596.279 98.6498C594.469 97.7598 593.009 96.5498 591.899 95.0198C590.799 93.4898 590.069 91.7098 589.709 89.6798C589.349 87.6498 589.499 85.4598 590.139 83.1198L596.329 60.2798C596.969 57.9298 597.998 55.7398 599.428 53.7098C600.848 51.6798 602.528 49.9198 604.448 48.4298C606.368 46.9398 608.448 45.7398 610.688 44.8498C612.928 43.9598 615.229 43.5098 617.579 43.5098H679.238L679.258 43.5298Z" fill="white"/>
<path d="M718.069 46.5499L704.339 98.0499C704.049 99.1399 703.059 99.8999 701.939 99.8999H683.499C681.869 99.8999 680.679 98.3499 681.099 96.7699L694.919 45.2699C695.209 44.1799 696.199 43.4299 697.319 43.4299H715.659C717.289 43.4299 718.479 44.9799 718.059 46.5599L718.069 46.5499ZM760.119 99.8899H741.679C740.049 99.8899 738.859 98.3399 739.279 96.7599L748.799 61.2499C749.159 59.8299 748.979 58.6399 748.269 57.6699C747.559 56.7099 746.489 56.2299 745.069 56.2299H723.569C721.429 56.2299 720.289 53.6999 721.709 52.0999L728.629 44.2599C729.099 43.7299 729.779 43.4199 730.489 43.4199H760.329C762.679 43.4199 764.739 43.8699 766.519 44.7499C768.299 45.6399 769.739 46.8299 770.839 48.3299C771.939 49.8199 772.669 51.5899 773.029 53.6099C773.389 55.6399 773.239 57.8299 772.599 60.1699L762.519 98.0299C762.229 99.1199 761.239 99.8799 760.119 99.8799V99.8899Z" fill="white"/>
<path d="M851.808 43.4199C854.298 43.4199 856.488 43.8799 858.378 44.8099C860.258 45.7399 861.798 47.0199 862.968 48.6499C864.138 50.2899 864.908 52.1699 865.258 54.3099C865.618 56.4499 865.468 58.7599 864.828 61.2499L854.968 98.0499C854.678 99.1399 853.688 99.8899 852.568 99.8899H785.408C783.698 99.8899 782.168 99.5499 780.818 98.8799C779.468 98.1999 778.358 97.2999 777.508 96.1599C776.658 95.0199 776.098 93.6899 775.858 92.1599C775.608 90.6299 775.738 88.9799 776.228 87.1999L778.788 77.4899C779.288 75.7799 780.068 74.1599 781.138 72.6299C782.208 71.0999 783.468 69.7699 784.928 68.6299C786.388 67.4899 787.968 66.5899 789.678 65.9099C791.388 65.2299 793.098 64.8999 794.798 64.8999H830.378C832.518 64.8999 833.658 67.4299 832.238 69.0299L827.668 74.1999C827.198 74.7299 826.518 75.0399 825.808 75.0399H806.328C805.398 75.0399 804.528 75.3599 803.708 75.9999C802.888 76.6399 802.338 77.4599 802.058 78.4599L800.668 83.6899C800.378 84.6899 800.488 85.4999 800.988 86.1499C801.488 86.7899 802.198 87.1099 803.128 87.1099H832.498C833.618 87.1099 834.608 86.3499 834.898 85.2699L841.878 59.2499C842.088 58.3999 841.988 57.6899 841.558 57.1199C841.128 56.5499 840.488 56.2699 839.638 56.2699H790.348C788.718 56.2699 787.528 54.7199 787.948 53.1399L790.038 45.2999C790.328 44.2099 791.318 43.4499 792.438 43.4499H851.798L851.808 43.4199Z" fill="white"/>
<path d="M895.58 80.8899C895.08 82.5999 895.29 84.0599 896.22 85.2699C897.14 86.4799 898.46 87.0799 900.17 87.0799H914.76C916.39 87.0799 917.58 88.6299 917.16 90.2099L915.07 98.0499C914.78 99.1399 913.79 99.8999 912.67 99.8999H884.58C882.16 99.8999 880.01 99.4399 878.12 98.5099C876.23 97.5899 874.7 96.3199 873.53 94.7199C872.36 93.1199 871.59 91.2499 871.24 89.1199C870.88 86.9899 871.03 84.7099 871.67 82.2899L885.38 30.9699C885.67 29.8799 886.66 29.1299 887.78 29.1299H906.22C907.85 29.1299 909.04 30.6799 908.62 32.2599L895.58 80.8999V80.8899ZM917.09 43.4199H923.84C925.47 43.4199 926.66 44.9699 926.24 46.5499L924.15 54.3899C923.86 55.4799 922.87 56.2399 921.75 56.2399H910.17C908.03 56.2399 906.89 53.7099 908.31 52.1099L915.23 44.2699C915.7 43.7399 916.38 43.4299 917.09 43.4299V43.4199Z" fill="white"/>
<path d="M963.7 46.55L949.969 98.05C949.679 99.14 948.69 99.9 947.57 99.9H929.13C927.5 99.9 926.31 98.35 926.73 96.77L940.55 45.27C940.84 44.18 941.83 43.43 942.95 43.43H961.29C962.92 43.43 964.11 44.98 963.69 46.56L963.7 46.55ZM969.909 23.37L966.84 35.05C966.55 36.14 965.57 36.9 964.44 36.9H946.01C944.37 36.9 943.18 35.35 943.61 33.77L946.76 22.09C947.05 21 948.039 20.25 949.159 20.25H967.52C969.15 20.25 970.34 21.79 969.92 23.37H969.909Z" fill="white"/>
<path d="M989.939 80.5698C989.439 82.4198 989.649 83.9898 990.579 85.2698C991.499 86.5498 992.889 87.1898 994.739 87.1898H1040.5C1042.14 87.1898 1043.33 88.7398 1042.9 90.3198L1040.82 98.0498C1040.53 99.1398 1039.54 99.8898 1038.42 99.8898H979.049C976.629 99.8898 974.459 99.4298 972.539 98.4998C970.619 97.5798 969.069 96.3098 967.899 94.7098C966.729 93.1098 965.959 91.2198 965.609 89.0498C965.249 86.8798 965.399 84.5798 966.039 82.1598L971.589 61.3398C972.229 58.8498 973.309 56.5198 974.849 54.3498C976.379 52.1798 978.159 50.2898 980.189 48.6898C982.219 47.0898 984.439 45.8298 986.859 44.8998C989.279 43.9798 991.699 43.5098 994.119 43.5098H1052.16C1053.79 43.5098 1054.98 45.0598 1054.56 46.6398L1052.47 54.4798C1052.18 55.5698 1051.19 56.3298 1050.07 56.3298H1003.09C1001.24 56.3298 999.509 56.9498 997.909 58.1998C996.309 59.4498 995.219 60.9898 994.649 62.8398L989.949 80.5598L989.939 80.5698Z" fill="white"/>
</g>
<defs>
<clipPath id="clip0_108_4043">
<rect width="1054.63" height="132.6" fill="white"/>
</clipPath>
</defs>
</svg>
